<svg width="186" height="75" viewBox="0 0 186 75" fill="none" xmlns="http://www.w3.org/2000/svg">
<path fill-rule="evenodd" clip-rule="evenodd" d="M54.6249 18.0806C53.2084 19.7683 50.9419 21.0996 48.6754 20.9094C48.3921 18.6273 49.5018 16.2026 50.8003 14.705C52.2168 12.9697 54.6958 11.7336 56.7025 11.6385C56.9386 14.0156 56.0179 16.3452 54.6249 18.0806ZM56.6788 21.3611C54.6821 21.2453 52.8601 21.9657 51.3885 22.5475C50.4415 22.9219 49.6396 23.239 49.0294 23.239C48.3448 23.239 47.5097 22.905 46.5721 22.53C45.3436 22.0385 43.939 21.4767 42.4661 21.5037C39.09 21.5512 35.95 23.4767 34.2265 26.5433C30.6852 32.6763 33.3058 41.757 36.7291 46.749C38.4054 49.2213 40.4121 51.9312 43.0563 51.8362C44.2196 51.792 45.0564 51.4344 45.9225 51.0644C46.9195 50.6384 47.9552 50.1959 49.5724 50.1959C51.1336 50.1959 52.124 50.6269 53.0748 51.0406C53.9788 51.434 54.847 51.8118 56.1358 51.7886C58.8744 51.7411 60.5979 49.3164 62.2741 46.8441C64.0831 44.1908 64.878 41.6012 64.9986 41.2082L65.0088 41.1752L65.0128 41.1627C65.0099 41.1598 64.9875 41.1495 64.9481 41.1314C64.3434 40.8526 59.7215 38.7221 59.6771 33.0091C59.6326 28.2139 63.3431 25.7843 63.9272 25.4018L63.9273 25.4018L63.9276 25.4016L63.9278 25.4015C63.963 25.3784 63.9868 25.3628 63.9976 25.3547C61.6367 21.8365 57.9537 21.4561 56.6788 21.3611ZM75.637 51.5272V14.4674H89.4483C96.5783 14.4674 101.56 19.4119 101.56 26.6384C101.56 33.865 96.4838 38.857 89.2594 38.857H81.3504V51.5272H75.637ZM81.35 19.3166H87.9369C92.8948 19.3166 95.7279 21.979 95.7279 26.662C95.7279 31.345 92.8948 34.0312 87.9133 34.0312H81.35V19.3166ZM120.424 47.0816C118.913 49.9818 115.584 51.8122 111.995 51.8122C106.683 51.8122 102.977 48.6268 102.977 43.8249C102.977 39.0706 106.565 36.3369 113.199 35.9328L120.329 35.5049V33.4606C120.329 30.4416 118.37 28.8013 114.876 28.8013C111.995 28.8013 109.894 30.2989 109.469 32.581H104.322C104.488 27.7792 108.973 24.2848 115.041 24.2848C121.58 24.2848 125.83 27.7316 125.83 33.0802V51.5269H120.542V47.0816H120.424ZM113.529 47.4146C110.484 47.4146 108.548 45.9408 108.548 43.6825C108.548 41.3529 110.413 39.9979 113.978 39.7839L120.329 39.3798V41.4717C120.329 44.9424 117.401 47.4146 113.529 47.4146ZM143.372 52.9773C141.081 59.467 138.461 61.6064 132.889 61.6064C132.464 61.6064 131.048 61.5588 130.717 61.4638V57.0185C131.071 57.066 131.945 57.1136 132.393 57.1136C134.919 57.1136 136.336 56.0439 137.21 53.2626L137.729 51.6224L128.049 24.6417H134.022L140.751 46.5352H140.869L147.598 24.6417H153.405L143.372 52.9773Z" fill="black"/>
</svg>
