<svg width="186" height="75" viewBox="0 0 186 75" fill="none" xmlns="http://www.w3.org/2000/svg">
<path d="M41.882 40.883C39.5277 50.5024 29.9219 56.3673 20.4262 53.9819C10.9305 51.595 5.14346 41.8625 7.49778 32.243C9.8521 22.622 19.4579 16.7571 28.9536 19.1441C28.9702 19.1486 28.9853 19.1517 29.0019 19.1563C38.472 21.5646 44.2334 31.2818 41.882 40.883Z" fill="#F7931A"/>
<path d="M28.7079 33.9491C28.1544 36.1924 24.7775 35.0432 23.6825 34.7682L24.6508 30.8424C25.7307 31.1114 29.2614 31.6279 28.6913 33.9491H28.7079ZM28.1046 40.2923C27.5073 42.7373 23.4442 41.4139 22.126 41.0823L23.1938 36.7471C24.512 37.0832 28.729 37.7403 28.1031 40.2923H28.1046ZM32.5327 33.9827C32.8811 31.5927 31.0878 30.3091 28.6581 29.4564L29.4544 26.2199L27.4892 25.7263L26.714 28.8788C26.2042 28.7505 25.6794 28.6267 25.159 28.509L25.9343 25.3229L23.9917 24.8293L23.1953 28.0659L21.9556 27.7862L19.271 27.1077L18.7567 29.2104C18.7567 29.2104 20.1955 29.5466 20.1684 29.5695C20.7173 29.6368 21.1185 30.1319 21.0763 30.6912L20.1684 34.3754C20.2362 34.3907 20.3041 34.4136 20.3674 34.4427L20.1623 34.3861L18.8939 39.5511C18.7748 39.9286 18.3766 40.1364 18.0026 40.0172C18.0026 40.0447 16.5848 39.6642 16.5848 39.6642L15.6211 41.9075L18.1504 42.5417L19.5334 42.9069L18.731 46.177L20.6736 46.6706L21.4699 43.4341C21.9933 43.5792 22.5091 43.7137 23.0144 43.8375L22.2286 47.0847L24.1712 47.5722L24.9735 44.3082C28.2946 44.9423 30.7802 44.6887 31.8314 41.6492C32.679 39.2043 31.7876 37.7969 30.0441 36.8769C31.3171 36.5805 32.2582 35.7553 32.5297 33.9827H32.5327Z" fill="white"/>
<path d="M53.0896 48.8789C54.1243 48.8819 55.1423 48.6145 56.0457 48.1041C56.9748 47.6014 57.7937 46.9107 58.4483 46.0733C59.13 45.1885 59.6669 44.1983 60.0365 43.1408C60.4271 42.0467 60.6247 40.893 60.6232 39.7316C60.685 38.5519 60.4361 37.3768 59.9037 36.327C59.4271 35.514 58.5418 35.0984 57.2583 35.0984C56.6988 35.1182 56.1422 35.1946 55.5978 35.3276C54.9221 35.4804 54.2962 35.8089 53.7819 36.2811L50.8484 48.7093L51.319 48.7994C51.4592 48.8346 51.6025 48.8575 51.7443 48.8666C51.9283 48.8896 52.1123 48.8987 52.2978 48.8942L53.0896 48.8773V48.8789ZM58.9189 29.452C60.2009 29.4214 61.4723 29.6873 62.6381 30.2267C63.6501 30.7157 64.54 31.4309 65.2398 32.3187C65.9562 33.2371 66.4826 34.2915 66.7902 35.4193C67.1251 36.6631 67.291 37.9483 67.2834 39.238C67.2819 43.2524 65.7466 47.1078 62.9986 50.0005C61.6668 51.385 60.0817 52.4929 58.3322 53.2646C56.4982 54.0821 54.5134 54.4993 52.509 54.487H51.0912C50.3205 54.4611 49.5514 54.3938 48.7882 54.2853C47.8561 54.1478 46.9316 53.9614 46.0206 53.7245C45.0644 53.4953 44.1369 53.1606 43.2531 52.7267L51.0309 19.7164L57.9777 18.5948L55.2102 30.3108C55.7863 30.0464 56.3851 29.834 56.9974 29.6766C57.6293 29.5208 58.2794 29.4428 58.9294 29.4474L58.9189 29.4535V29.452Z" fill="#4D4D4D"/>
<path d="M77.6887 27.0452C76.7838 27.0544 75.9 26.7595 75.176 26.2094C74.4084 25.5935 73.9921 24.6308 74.069 23.6406C74.066 23.0233 74.1957 22.412 74.4506 21.8512C74.6949 21.3041 75.0373 20.8105 75.4641 20.3934C75.8894 19.9838 76.3826 19.6538 76.9195 19.4169C77.4791 19.1739 78.0824 19.0502 78.6902 19.0517C79.5891 19.0486 80.4638 19.3451 81.1817 19.8922C81.9479 20.5095 82.3627 21.4707 82.2888 22.4609C82.2933 23.0798 82.1651 23.6926 81.9132 24.2549C81.6689 24.7989 81.328 25.291 80.9057 25.7066C80.4819 26.1177 79.9887 26.4477 79.4503 26.6831C78.8908 26.926 78.2875 27.0483 77.6797 27.0422H77.6902L77.6887 27.0452ZM74.4611 53.8468H67.819L73.431 29.9548H80.1124L74.4611 53.8468Z" fill="#4D4D4D"/>
<path d="M85.9251 24.0057L92.8719 22.9177L91.145 29.9562H98.585L97.2442 35.4971H89.866L87.8963 43.8315C87.7259 44.4702 87.6203 45.1242 87.5811 45.7844C87.5404 46.3177 87.6188 46.8541 87.8073 47.3538C87.9928 47.8015 88.3352 48.1637 88.7711 48.3684C89.397 48.6481 90.0802 48.7764 90.7634 48.7382C91.4648 48.7413 92.1631 48.671 92.8508 48.5304C93.5416 48.3929 94.2233 48.2064 94.8884 47.9696L95.3861 53.1514C94.4329 53.4983 93.4586 53.7856 92.4692 54.0102C91.2476 54.273 89.9988 54.3953 88.75 54.3754C86.6852 54.3754 85.091 54.0606 83.9508 53.4448C82.8845 52.8947 82.0294 51.9992 81.5271 50.899C81.0355 49.7315 80.8213 48.4632 80.9012 47.1979C80.9751 45.7126 81.1848 44.2364 81.5271 42.7893L85.9281 23.9859V24.0088L85.9251 24.0057Z" fill="#4D4D4D"/>
<path d="M98.3405 44.3083C98.3269 42.3263 98.6603 40.3566 99.3254 38.4923C99.9498 36.7304 100.909 35.1091 102.149 33.72C103.398 32.3432 104.918 31.246 106.61 30.5003C108.456 29.6934 110.45 29.29 112.46 29.3175C113.675 29.3022 114.886 29.4321 116.07 29.7041C117.065 29.9425 118.033 30.2848 118.959 30.7249L116.652 35.9801C116.054 35.7341 115.433 35.5216 114.792 35.3245C114.026 35.1091 113.234 35.0082 112.439 35.0281C110.432 34.9547 108.501 35.8135 107.197 37.3615C105.901 38.9049 105.251 40.9801 105.248 43.587C105.188 44.9088 105.532 46.2169 106.233 47.3339C106.889 48.2875 108.1 48.7627 109.865 48.7627C110.709 48.7627 111.552 48.671 112.377 48.4877C113.113 48.3287 113.834 48.1011 114.531 47.8092L115.024 53.2156C114.119 53.5625 113.195 53.859 112.257 54.1004C111.065 54.3724 109.847 54.5008 108.625 54.4825C107.004 54.5298 105.391 54.2532 103.876 53.6695C102.671 53.1774 101.586 52.4256 100.698 51.466C99.8548 50.5353 99.2319 49.4229 98.8774 48.2126C98.5019 46.9397 98.3149 45.6164 98.3239 44.2869L98.3405 44.3098V44.3083Z" fill="#4D4D4D"/>
<path d="M131.114 35.0494C130.177 35.0356 129.262 35.3382 128.512 35.9082C127.752 36.5041 127.114 37.2453 126.636 38.0903C126.11 38.9888 125.715 39.9607 125.463 40.9739C125.22 41.9457 125.093 42.9421 125.087 43.946C125.027 45.1701 125.273 46.388 125.802 47.4913C126.283 48.3378 127.147 48.7642 128.404 48.7642C129.342 48.781 130.259 48.4769 131.005 47.9008C131.767 47.3048 132.407 46.5637 132.888 45.7202C133.406 44.8201 133.793 43.8498 134.034 42.8366C134.275 41.8632 134.402 40.8638 134.409 39.8583C134.471 38.6358 134.225 37.4149 133.695 36.3131C133.213 35.4727 132.343 35.0463 131.093 35.0463L131.116 35.0524L131.114 35.0494ZM127.793 54.487C126.383 54.5206 124.98 54.2715 123.663 53.758C122.556 53.3149 121.567 52.6165 120.774 51.7165C119.994 50.8103 119.407 49.7498 119.047 48.6037C118.656 47.3186 118.468 45.9784 118.493 44.6337C118.498 42.7816 118.79 40.9418 119.364 39.1829C119.919 37.4118 120.786 35.7584 121.92 34.2975C123.06 32.8382 124.478 31.6249 126.087 30.7309C127.82 29.7866 129.764 29.3098 131.734 29.3449C133.137 29.319 134.53 29.5665 135.841 30.0738C136.949 30.5094 137.945 31.1985 138.747 32.0879C139.522 32.9971 140.107 34.0561 140.469 35.2007C140.863 36.4873 141.05 37.829 141.023 39.1768C141.017 41.0273 140.732 42.8657 140.175 44.6276C139.629 46.4002 138.779 48.0612 137.663 49.5343C136.539 50.9998 135.127 52.2131 133.517 53.0964C131.757 54.0453 129.787 54.5252 127.793 54.487Z" fill="#4D4D4D"/>
<path d="M151.511 27.0454C150.608 27.0545 149.725 26.7611 149.005 26.2095C148.235 25.5937 147.821 24.6309 147.898 23.6407C147.894 23.0234 148.024 22.4121 148.279 21.8513C148.516 21.3073 148.851 20.8137 149.264 20.3935C149.692 19.9855 150.185 19.6554 150.725 19.417C151.283 19.1741 151.884 19.0503 152.492 19.0518C153.396 19.0442 154.282 19.3406 155.004 19.8923C155.77 20.5096 156.185 21.4708 156.111 22.461C156.111 23.0814 155.98 23.6927 155.724 24.255C155.484 24.799 155.143 25.2926 154.722 25.7067C154.298 26.1178 153.805 26.4479 153.267 26.6832C152.712 26.9246 152.114 27.0469 151.511 27.0423V27.0454ZM148.29 53.8469H141.647L147.249 29.9549H153.935L148.288 53.8469H148.29Z" fill="#4D4D4D"/>
<path d="M158.719 31.0441C159.223 30.899 159.782 30.7187 160.379 30.5231C160.977 30.3275 161.675 30.1471 162.444 29.9622C163.287 29.7804 164.139 29.6444 164.996 29.5527C166.061 29.4381 167.13 29.3846 168.201 29.3907C171.7 29.3907 174.112 30.4207 175.44 32.4806C176.235 33.7153 176.638 35.2205 176.649 36.9977V37.126C176.643 38.2813 176.472 39.5511 176.139 40.9326L173.089 53.8313H166.424L169.385 41.2015C169.561 40.4176 169.706 39.6535 169.812 38.9078C169.926 38.2614 169.926 37.6013 169.812 36.9564C169.702 36.417 169.408 35.9356 168.982 35.5933C168.391 35.2006 167.688 35.0172 166.984 35.0722C166.097 35.0738 165.212 35.1655 164.343 35.3473L159.992 53.8543H153.288L158.719 31.0457V31.0441Z" fill="#4D4D4D"/>
</svg>
