<svg width="186" height="75" viewBox="0 0 186 75" fill="none" xmlns="http://www.w3.org/2000/svg">
<path fill-rule="evenodd" clip-rule="evenodd" d="M89.0577 52.3436V37.3907H96.7751C99.9376 37.3907 102.607 36.331 104.783 34.2411L105.305 33.7113C109.28 29.3844 109.019 22.6438 104.783 18.6406C102.665 16.5213 99.7635 15.3734 96.7751 15.4322H84.3866V52.3436H89.0577ZM89.0581 32.8575V19.965H96.8929C98.5759 19.965 100.172 20.6126 101.362 21.79C103.886 24.2625 103.944 28.3834 101.507 30.9442C100.317 32.2099 98.634 32.9163 96.8929 32.8575H89.0581ZM127.094 29.0604C125.092 27.206 122.365 26.2641 118.912 26.2641C114.473 26.2641 111.137 27.9125 108.932 31.1797L113.052 33.7994C114.56 31.5624 116.62 30.4439 119.232 30.4439C120.885 30.4439 122.481 31.062 123.729 32.1805C124.947 33.2402 125.643 34.7708 125.643 36.3897V37.4788C123.845 36.478 121.582 35.9482 118.796 35.9482C115.547 35.9482 112.936 36.7135 110.992 38.2735C109.048 39.8336 108.062 41.894 108.062 44.5137C108.004 46.898 109.019 49.1645 110.818 50.6951C112.646 52.3434 114.967 53.1676 117.694 53.1676C120.914 53.1676 123.467 51.7253 125.411 48.8407H125.614V52.3434H130.082V36.7724C130.082 33.5051 129.096 30.9148 127.094 29.0604ZM114.416 47.6926C113.458 46.9861 112.878 45.8382 112.878 44.6019C112.878 43.2185 113.516 42.0705 114.764 41.158C116.041 40.2455 117.637 39.7746 119.523 39.7746C122.135 39.7452 124.166 40.3339 125.617 41.5112C125.617 43.5128 124.833 45.2495 123.295 46.7212C121.903 48.1341 120.016 48.9288 118.043 48.9288C116.737 48.9583 115.461 48.5168 114.416 47.6926ZM140.121 63.4402L155.73 27.0882H150.653L143.428 45.22H143.341L135.943 27.0882H130.866L141.107 50.7244L135.305 63.4402H140.121Z" fill="#3C4043"/>
<path d="M72.9312 34.153C72.9312 32.7107 72.8152 31.2683 72.5831 29.8555H52.8832V38.0089H64.1693C63.7051 40.6286 62.1964 42.9834 59.9914 44.4552V49.7535H66.7224C70.6682 46.0741 72.9312 40.6286 72.9312 34.153Z" fill="#4285F4"/>
<path d="M52.8843 54.875C58.5128 54.875 63.271 52.9912 66.7235 49.7534L59.9925 44.4551C58.1066 45.7502 55.6986 46.4861 52.8843 46.4861C47.4298 46.4861 42.8168 42.7479 41.163 37.7439H34.2289V43.2188C37.7685 50.3715 44.9927 54.875 52.8843 54.875Z" fill="#34A853"/>
<path d="M41.1636 37.7438C40.2931 35.1241 40.2931 32.2689 41.1636 29.6198V24.1743H34.2284C31.2396 30.1496 31.2396 37.214 34.2284 43.1893L41.1636 37.7438Z" fill="#FBBC04"/>
<path d="M52.8843 20.8777C55.8726 20.8189 58.7449 21.9668 60.8919 24.0567L66.8686 17.9931C63.0679 14.4021 58.0776 12.4299 52.8843 12.4888C44.9927 12.4888 37.7685 17.0218 34.2289 24.1745L41.163 29.6493C42.8168 24.616 47.4298 20.8777 52.8843 20.8777Z" fill="#EA4335"/>
</svg>
