<svg width="186" height="75" viewBox="0 0 186 75" fill="none" xmlns="http://www.w3.org/2000/svg">
<path fill-rule="evenodd" clip-rule="evenodd" d="M112.207 68.1802C129.312 68.1802 143.179 54.4785 143.179 37.5766C143.179 20.6747 129.312 6.97296 112.207 6.97296C104.541 6.97296 97.5251 9.72502 92.1167 14.2838C86.7083 9.72502 79.6927 6.97296 72.0266 6.97296C54.9212 6.97296 41.0544 20.6747 41.0544 37.5766C41.0544 54.4785 54.9212 68.1802 72.0266 68.1802C79.6927 68.1802 86.7084 65.4281 92.1167 60.8693C97.5251 65.4281 104.541 68.1802 112.207 68.1802Z" fill="#ED0006"/>
<path fill-rule="evenodd" clip-rule="evenodd" d="M92.1165 60.8694C98.7759 55.2561 102.999 46.9036 102.999 37.5766C102.999 28.2495 98.7759 19.897 92.1165 14.2837C97.5248 9.72497 104.54 6.97296 112.206 6.97296C129.312 6.97296 143.179 20.6747 143.179 37.5766C143.179 54.4785 129.312 68.1802 112.206 68.1802C104.54 68.1802 97.5248 65.4281 92.1165 60.8694Z" fill="#F9A000"/>
<path fill-rule="evenodd" clip-rule="evenodd" d="M92.1168 60.8693C98.7761 55.2561 102.999 46.9036 102.999 37.5766C102.999 28.2496 98.7761 19.8971 92.1168 14.2839C85.4574 19.8971 81.2347 28.2496 81.2347 37.5766C81.2347 46.9036 85.4574 55.2561 92.1168 60.8693Z" fill="#FF5E00"/>
</svg>
