<svg width="186" height="75" viewBox="0 0 186 75" fill="none" xmlns="http://www.w3.org/2000/svg">
<path d="M71.8737 27.4311H62.6131C61.9796 27.4311 61.4405 27.876 61.3414 28.4814L57.5961 51.4433C57.5304 51.8506 57.8184 52.232 58.2396 52.2961C58.2791 52.3019 58.3193 52.3051 58.3601 52.3051H62.7812C63.4153 52.3051 63.9544 51.859 64.0528 51.2536L65.0633 45.0602C65.1611 44.4554 65.7002 44.0093 66.3337 44.0086H69.2654C75.3659 44.0086 78.8863 41.1544 79.8057 35.4978C80.2202 33.023 79.8231 31.0785 78.6251 29.7168C77.3086 28.2217 74.9742 27.4305 71.875 27.4305L71.8737 27.4311ZM72.9418 35.8176C72.4355 39.0306 69.8962 39.0306 67.4413 39.0306H66.0437L67.0241 33.0301C67.0837 32.6675 67.4064 32.4001 67.7861 32.4001H68.4263C70.0984 32.4001 71.6761 32.4001 72.4911 33.3222C72.9773 33.8719 73.1259 34.689 72.9405 35.8176H72.9418ZM99.5558 35.714H95.1213C94.7416 35.714 94.4182 35.9815 94.3593 36.3441L94.1631 37.5433L93.853 37.1088C92.8927 35.7613 90.7518 35.3113 88.615 35.3113C83.7145 35.3113 79.5285 38.9004 78.7135 43.9348C78.2896 46.4458 78.8923 48.8474 80.3656 50.5219C81.7169 52.0617 83.6509 52.7034 85.9511 52.7034C89.9001 52.7034 92.0891 50.2486 92.0891 50.2486L91.8916 51.4401C91.824 51.8473 92.1112 52.23 92.5318 52.2948C92.572 52.3013 92.6121 52.3038 92.6523 52.3038H96.6468C97.281 52.3038 97.82 51.8577 97.9185 51.2523L100.315 36.5759C100.383 36.1705 100.097 35.7885 99.6776 35.7238C99.6375 35.7173 99.5966 35.714 99.5558 35.714ZM93.3742 44.0598C92.9463 46.5093 90.9353 48.154 88.3706 48.154C87.0828 48.154 86.0536 47.7545 85.3926 46.9975C84.737 46.2458 84.4879 45.1761 84.6969 43.9847C85.0966 41.5559 87.1411 39.8574 89.6663 39.8574C90.926 39.8574 91.9492 40.2621 92.6235 41.0256C93.2992 41.7967 93.5671 42.8729 93.3735 44.0591L93.3742 44.0598ZM123.174 35.714H118.718C118.291 35.7147 117.892 35.9193 117.652 36.2599L111.506 45.0142L108.901 36.6018C108.737 36.0747 108.235 35.714 107.666 35.714H103.286C102.86 35.7128 102.514 36.0462 102.512 36.4587C102.512 36.5416 102.526 36.6231 102.554 36.7015L107.462 50.63L102.848 56.929C102.601 57.265 102.682 57.7312 103.03 57.9695C103.16 58.0595 103.317 58.1075 103.477 58.1075H107.928C108.35 58.1075 108.745 57.9087 108.986 57.5733L123.808 36.8854C124.051 36.5467 123.964 36.0818 123.614 35.8468C123.484 35.76 123.331 35.7134 123.174 35.7134L123.174 35.714Z" fill="#253B80"/>
<path d="M137.929 27.4312H128.667C128.034 27.4312 127.495 27.8767 127.397 28.4814L123.651 51.4433C123.585 51.85 123.872 52.2314 124.291 52.2955C124.332 52.3013 124.372 52.3045 124.412 52.3045H129.165C129.608 52.3045 129.985 51.9918 130.054 51.569L131.117 45.0602C131.214 44.4554 131.753 44.0093 132.387 44.0087H135.317C141.419 44.0087 144.938 41.1544 145.859 35.4978C146.275 33.023 145.875 31.0786 144.677 29.7169C143.362 28.2218 141.029 27.4305 137.93 27.4305L137.929 27.4312ZM138.997 35.8177C138.492 39.0306 135.953 39.0306 133.496 39.0306H132.1L133.082 33.0302C133.14 32.6676 133.463 32.4001 133.843 32.4001H134.483C136.154 32.4001 137.733 32.4001 138.548 33.3222C139.034 33.8719 139.181 34.6891 138.996 35.8177H138.997ZM165.61 35.7141H161.178C160.798 35.7128 160.475 35.9809 160.417 36.3441L160.221 37.5433L159.91 37.1088C158.949 35.7614 156.81 35.3113 154.673 35.3113C149.772 35.3113 145.588 38.9005 144.773 43.9348C144.35 46.4459 144.95 48.8475 146.423 50.5219C147.777 52.0617 149.709 52.7034 152.009 52.7034C155.958 52.7034 158.147 50.2487 158.147 50.2487L157.949 51.4401C157.882 51.8474 158.169 52.2301 158.59 52.2948C158.631 52.3013 158.672 52.3045 158.713 52.3039H162.706C163.34 52.3039 163.878 51.8577 163.976 51.2523L166.374 36.5759C166.439 36.168 166.15 35.786 165.728 35.7231C165.689 35.7173 165.649 35.7141 165.61 35.7147V35.7141ZM159.428 44.0598C159.003 46.5093 156.989 48.154 154.424 48.154C153.139 48.154 152.107 47.7545 151.446 46.9976C150.791 46.2458 150.544 45.1761 150.751 43.9847C151.153 41.5559 153.195 39.8575 155.72 39.8575C156.98 39.8575 158.003 40.2622 158.677 41.0256C159.356 41.7968 159.624 42.8729 159.427 44.0592L159.428 44.0598ZM170.838 28.0612L167.037 51.4433C166.97 51.85 167.257 52.2314 167.677 52.2955C167.717 52.3013 167.757 52.3045 167.797 52.3045H171.618C172.253 52.3045 172.792 51.859 172.89 51.253L176.638 28.2924C176.704 27.8851 176.417 27.503 175.996 27.4389C175.956 27.4331 175.917 27.4299 175.877 27.4299H171.598C171.218 27.4312 170.896 27.6986 170.837 28.0612H170.838Z" fill="#179BD7"/>
<path d="M19.1374 56.7671L19.8459 52.4172L18.2682 52.3816H10.7353L15.97 20.2866C16.0021 20.0839 16.1829 19.9343 16.3952 19.9356H29.0971C33.3139 19.9356 36.2236 20.7839 37.743 22.459C38.4555 23.2444 38.9089 24.0654 39.1285 24.9687C39.3589 25.9166 39.3629 27.0491 39.1379 28.4309L39.1218 28.5319V29.4171L39.8343 29.8075C40.3781 30.0736 40.8669 30.4343 41.2768 30.8707C41.8862 31.5422 42.2799 32.3963 42.4467 33.4083C42.6188 34.4495 42.5618 35.6882 42.2799 37.09C41.9551 38.703 41.4295 40.1081 40.7203 41.2574C40.0942 42.2876 39.2524 43.1792 38.2493 43.8759C37.3071 44.5228 36.1867 45.0136 34.9211 45.3283C33.6943 45.6371 32.2954 45.7932 30.7612 45.7932H29.7728C29.0657 45.7932 28.3793 46.0392 27.8402 46.4808C27.3018 46.927 26.9449 47.5428 26.833 48.2194L26.7587 48.6111L25.5078 56.2776L25.4509 56.5593C25.4362 56.6487 25.41 56.6927 25.3725 56.7231C25.3357 56.7523 25.2902 56.7684 25.2426 56.7691H19.1394L19.1374 56.7671Z" fill="#253B80"/>
<path d="M40.5079 28.6336C40.4698 28.868 40.4269 29.1076 40.378 29.3536C38.7032 37.6696 32.9723 40.5419 25.653 40.5419H21.9264C21.0311 40.5419 20.2771 41.1706 20.1378 42.0241L18.23 53.7245L17.6895 57.0411C17.6072 57.5442 17.9621 58.0162 18.4824 58.0959C18.5313 58.1036 18.5809 58.1069 18.6311 58.1069H25.2405C26.0234 58.1069 26.6883 57.5571 26.8115 56.8106L26.8765 56.4862L28.1207 48.8501L28.2004 48.4312C28.3223 47.682 28.9886 47.1323 29.7714 47.1323H30.7598C37.1637 47.1323 42.1767 44.6186 43.6419 37.3439C44.254 34.3051 43.9372 31.7675 42.3173 29.983C41.8037 29.4307 41.191 28.9742 40.5079 28.6343V28.6336Z" fill="#179BD7"/>
<path d="M38.7561 27.9575C38.221 27.8079 37.6773 27.6914 37.1268 27.6079C36.04 27.4466 34.9411 27.3689 33.8415 27.3761H23.8858C23.103 27.3761 22.4367 27.9271 22.3161 28.675L20.198 41.6452L20.1371 42.0233C20.2737 41.1699 21.0331 40.5405 21.9257 40.5412H25.6523C32.9716 40.5412 38.7018 37.6669 40.3773 29.3529C40.4275 29.1068 40.4697 28.8673 40.5072 28.6329C40.0653 28.4088 39.6045 28.2211 39.1297 28.0715C39.0052 28.0313 38.8806 27.9938 38.7547 27.9575H38.7561Z" fill="#222D65"/>
<path d="M22.3162 28.675C22.4354 27.9265 23.1023 27.3748 23.8858 27.3774H33.8415C35.0208 27.3774 36.1217 27.4518 37.1269 27.6092C37.8066 27.7128 38.4775 27.8669 39.1325 28.0715C39.6267 28.2301 40.0861 28.4173 40.5099 28.6329C41.0082 25.5598 40.5059 23.4677 38.7876 21.5731C36.8918 19.4875 33.4726 18.5946 29.0977 18.5946H16.3958C15.5018 18.5946 14.7397 19.2233 14.6018 20.078L9.31086 52.5039C9.21644 53.0795 9.62292 53.6202 10.2182 53.7115C10.2745 53.7199 10.3307 53.7245 10.3877 53.7245H18.2293L20.1981 41.6458L22.3162 28.6756V28.675Z" fill="#253B80"/>
</svg>
