<svg width="186" height="75" viewBox="0 0 186 75" fill="none" xmlns="http://www.w3.org/2000/svg">
<path fill-rule="evenodd" clip-rule="evenodd" d="M98.3657 13.3551L87.8824 15.6711V6.92177L98.3657 4.64865V13.3551ZM120.167 18.2015C116.074 18.2015 113.443 20.1744 111.981 21.5469L111.438 18.8878H102.249V68.8965L112.691 66.6234L112.733 54.4858C114.236 55.6009 116.45 57.1878 120.125 57.1878C127.601 57.1878 134.409 51.0117 134.409 37.4159C134.367 24.978 127.476 18.2015 120.167 18.2015ZM117.661 47.7519C115.197 47.7519 113.735 46.8512 112.733 45.7361L112.691 29.8242C113.777 28.5805 115.28 27.7227 117.661 27.7227C121.462 27.7227 124.093 32.0974 124.093 37.7158C124.093 43.4629 121.503 47.7519 117.661 47.7519ZM167.321 37.8447C167.321 26.8651 162.142 18.2015 152.244 18.2015C142.303 18.2015 136.289 26.8651 136.289 37.759C136.289 50.6686 143.389 57.1877 153.58 57.1877C158.55 57.1877 162.309 56.0297 165.149 54.3999V45.8221C162.309 47.2803 159.051 48.181 154.917 48.181C150.865 48.181 147.273 46.7228 146.814 41.6619H167.237C167.237 41.4255 167.252 40.8885 167.27 40.2698C167.293 39.4291 167.321 38.4377 167.321 37.8447ZM146.688 33.77C146.688 28.9236 149.57 26.9078 152.201 26.9078C154.749 26.9078 157.464 28.9236 157.464 33.77H146.688ZM87.882 18.9306H98.3653V56.4585H87.882V18.9306ZM75.9796 18.9307L76.6479 22.1045C79.1121 17.4725 83.9987 18.4161 85.3352 18.9307V28.7952C84.0404 28.3235 79.8639 27.723 77.3997 31.0255V56.4587H66.9582V18.9307H75.9796ZM55.7643 9.62372L45.5734 11.854L45.5317 46.2081C45.5317 52.5557 50.1677 57.2306 56.349 57.2306C59.7738 57.2306 62.2798 56.5873 63.6581 55.8153V47.1088C62.3216 47.6663 55.7225 49.6392 55.7225 43.2917V28.066H63.6581V18.9307H55.7225L55.7643 9.62372ZM31.0814 27.5085C28.8678 27.5085 27.5313 28.1518 27.5313 29.8245C27.5313 31.6508 29.8315 32.4542 32.6851 33.4508C37.3371 35.0757 43.46 37.2142 43.4859 45.1359C43.4859 52.8131 37.5134 57.2307 28.8261 57.2307C25.2342 57.2307 21.3082 56.5015 17.424 54.786V44.5784C20.9323 46.5513 25.3595 48.0095 28.8261 48.0095C31.165 48.0095 32.8356 47.3662 32.8356 45.3933C32.8356 43.3703 30.3422 42.4456 27.332 41.3293C22.7476 39.6292 16.9646 37.4846 16.9646 30.3392C16.9646 22.7478 22.603 18.2015 31.0814 18.2015C34.548 18.2015 37.9728 18.7591 41.4394 20.1744V30.2534C38.2652 28.4949 34.2556 27.5085 31.0814 27.5085Z" fill="#6461FC"/>
</svg>
