<svg width="186" height="75" viewBox="0 0 186 75" fill="none" xmlns="http://www.w3.org/2000/svg">
<path fill-rule="evenodd" clip-rule="evenodd" d="M55.388 60.1259H42.5106L32.8541 22.2024C32.3958 20.4579 31.4226 18.9156 29.9911 18.1888C26.4185 16.3621 22.4819 14.9084 18.1873 14.1752V12.7151H38.9318C41.7948 12.7151 43.9421 14.9084 44.3 17.4556L49.3103 44.8111L62.1815 12.7151H74.701L55.388 60.1259ZM81.8585 60.1259H69.6968L79.7112 12.7151H91.8728L81.8585 60.1259ZM107.607 25.8493C107.965 23.2958 110.112 21.8357 112.617 21.8357C116.554 21.4691 120.842 22.2023 124.421 24.0227L126.568 13.8149C122.99 12.3548 119.053 11.6216 115.48 11.6216C103.677 11.6216 95.0876 18.1887 95.0876 27.303C95.0876 34.2367 101.172 37.8774 105.466 40.0707C110.112 42.2576 111.902 43.7176 111.544 45.9046C111.544 49.185 107.965 50.645 104.392 50.645C100.098 50.645 95.8033 49.5515 91.8729 47.7249L89.7257 57.939C94.0202 59.7593 98.6664 60.4925 102.961 60.4925C116.196 60.8528 124.421 54.292 124.421 44.4445C124.421 32.0435 107.607 31.3166 107.607 25.8493ZM166.984 60.1259L157.327 12.7151H146.955C144.808 12.7151 142.66 14.1752 141.945 16.3621L124.063 60.1259H136.583L139.082 53.1986H154.464L155.896 60.1259H166.984ZM148.744 25.4829L152.317 43.3513H142.303L148.744 25.4829Z" fill="#172B85"/>
</svg>
